<?xml version="1.0" encoding="UTF-8" standalone="no"?>
<!DOCTYPE svg PUBLIC "-//W3C//DTD SVG 1.1//EN" "http://www.w3.org/Graphics/SVG/1.1/DTD/svg11.dtd">
<svg width="100%" height="100%" viewBox="0 0 2363 2363" version="1.1" xmlns="http://www.w3.org/2000/svg" xmlns:xlink="http://www.w3.org/1999/xlink" xml:space="preserve" xmlns:serif="http://www.serif.com/" style="fill-rule:evenodd;clip-rule:evenodd;stroke-linejoin:round;stroke-miterlimit:2;">
    <g transform="matrix(3.487122,0,0,3.456322,-2235.643213,-4269.636174)">
        <path d="M920.103,1619.61L895.556,1536.239L982.566,1482.953L920.103,1619.61ZM894.857,1676.618L850.092,1774.228L822.502,1693.152L894.857,1676.618ZM822.502,1693.152L851.817,1630.176L894.857,1676.618L822.502,1693.152ZM894.857,1676.618L851.817,1630.176L920.103,1619.61L894.857,1676.616L894.857,1676.618ZM850.092,1774.228L784.758,1774.232L822.502,1693.152L850.092,1774.228ZM1137.73,1692.26L1066.855,1676.607L1110.084,1630.508L1137.73,1692.26ZM1066.855,1676.607L1042.181,1619.604L1066.855,1676.607L894.857,1676.616L920.103,1619.61L1042.181,1619.604L1067.461,1533.776L1110.084,1630.508L1042.181,1619.604L1110.084,1630.508L1066.855,1676.607ZM1110.084,1630.508L1110.084,1630.508ZM1110.084,1630.508L1227.121,1618.414L1137.73,1692.26L1110.084,1630.508ZM822.502,1693.152L736,1615.055L851.817,1630.176L822.502,1693.152ZM983.6,1347.079L1067.461,1533.776L982.566,1482.953L983.6,1347.079ZM851.817,1630.176L895.556,1536.239L983.6,1347.079L982.566,1482.953L895.556,1536.239L920.103,1619.61L851.817,1630.176ZM1067.461,1533.776L1156.824,1457.82L1110.084,1630.508L1067.461,1533.776ZM982.566,1482.953L1067.461,1533.776L1042.181,1619.604L982.566,1482.953ZM1137.73,1692.26L1175.46,1774.211L1109.085,1774.215L1109.085,1774.211L1137.73,1692.26ZM1109.085,1774.211L1066.809,1676.623L1137.73,1692.26L1109.085,1774.211ZM851.817,1630.176L806.839,1459.734L895.556,1536.239C881.058,1567.46 866.401,1598.858 851.817,1630.176Z" style="fill:rgb(121,171,84);"/>
        <clipPath id="_clip1">
            <path d="M920.103,1619.61L895.556,1536.239L982.566,1482.953L920.103,1619.61ZM894.857,1676.618L850.092,1774.228L822.502,1693.152L894.857,1676.618ZM822.502,1693.152L851.817,1630.176L894.857,1676.618L822.502,1693.152ZM894.857,1676.618L851.817,1630.176L920.103,1619.61L894.857,1676.616L894.857,1676.618ZM850.092,1774.228L784.758,1774.232L822.502,1693.152L850.092,1774.228ZM1137.73,1692.26L1066.855,1676.607L1110.084,1630.508L1137.73,1692.26ZM1066.855,1676.607L1042.181,1619.604L1066.855,1676.607L894.857,1676.616L920.103,1619.61L1042.181,1619.604L1067.461,1533.776L1110.084,1630.508L1042.181,1619.604L1110.084,1630.508L1066.855,1676.607ZM1110.084,1630.508L1110.084,1630.508ZM1110.084,1630.508L1227.121,1618.414L1137.73,1692.26L1110.084,1630.508ZM822.502,1693.152L736,1615.055L851.817,1630.176L822.502,1693.152ZM983.6,1347.079L1067.461,1533.776L982.566,1482.953L983.6,1347.079ZM851.817,1630.176L895.556,1536.239L983.6,1347.079L982.566,1482.953L895.556,1536.239L920.103,1619.61L851.817,1630.176ZM1067.461,1533.776L1156.824,1457.82L1110.084,1630.508L1067.461,1533.776ZM982.566,1482.953L1067.461,1533.776L1042.181,1619.604L982.566,1482.953ZM1137.73,1692.26L1175.46,1774.211L1109.085,1774.215L1109.085,1774.211L1137.73,1692.26ZM1109.085,1774.211L1066.809,1676.623L1137.73,1692.26L1109.085,1774.211ZM851.817,1630.176L806.839,1459.734L895.556,1536.239C881.058,1567.46 866.401,1598.858 851.817,1630.176Z"/>
        </clipPath>
        <g clip-path="url(#_clip1)">
            <path d="M850.092,1774.228L784.758,1774.232L822.502,1693.152L850.092,1774.228Z" style="fill:rgb(84,107,66);fill-opacity:0.8;"/>
            <path d="M822.502,1693.152L851.817,1630.176L894.857,1676.618L822.502,1693.152Z" style="fill:rgb(84,107,66);fill-opacity:0.8;"/>
            <path d="M851.817,1630.176C866.401,1598.858 881.058,1567.46 895.556,1536.239L920.103,1619.61L851.817,1630.176Z" style="fill:rgb(84,107,66);fill-opacity:0.8;"/>
            <path d="M895.556,1536.239L983.6,1347.079L982.566,1482.953L895.556,1536.239Z" style="fill:rgb(84,107,66);fill-opacity:0.8;"/>
            <path d="M983.6,1347.079L1067.461,1533.776L982.566,1482.953L983.6,1347.079Z" style="fill:rgb(84,107,66);fill-opacity:0.4;"/>
            <path d="M1067.461,1533.776L1110.084,1630.508L1042.181,1619.604L1067.461,1533.776Z" style="fill:rgb(84,107,66);fill-opacity:0.4;"/>
            <path d="M1137.73,1692.26L1066.855,1676.607L1110.084,1630.508L1137.73,1692.26Z" style="fill:rgb(84,107,66);fill-opacity:0.4;"/>
            <path d="M1137.73,1692.26L1175.46,1774.211L1109.085,1774.215L1109.085,1774.211L1137.73,1692.26Z" style="fill:rgb(84,107,66);fill-opacity:0.4;"/>
            <path d="M895.556,1536.239L982.566,1482.953L920.103,1619.61L895.556,1536.239Z" style="fill:rgb(84,107,66);fill-opacity:0.4;"/>
            <path d="M894.857,1676.616L894.857,1676.618L851.817,1630.176L920.103,1619.61L894.857,1676.616Z" style="fill:rgb(84,107,66);fill-opacity:0.4;"/>
            <path d="M894.857,1676.618L850.092,1774.228L822.502,1693.152L894.857,1676.618Z" style="fill:rgb(84,107,66);fill-opacity:0.4;"/>
            <path d="M851.817,1630.176L806.839,1459.734L895.556,1536.239L851.817,1630.176Z" style="fill:rgb(84,107,66);fill-opacity:0.4;"/>
            <path d="M822.502,1693.152L736,1615.055L851.817,1630.176L822.502,1693.152Z" style="fill:rgb(84,107,66);fill-opacity:0.4;"/>
            <path d="M1067.461,1533.776L1042.181,1619.604L982.566,1482.953L1067.461,1533.776Z" style="fill:rgb(84,107,66);fill-opacity:0.2;"/>
            <path d="M1067.461,1533.776L1156.824,1457.82L1110.084,1630.508L1067.461,1533.776Z" style="fill:rgb(84,107,66);fill-opacity:0.2;"/>
            <path d="M1066.855,1676.607L1042.181,1619.604L1110.084,1630.508L1066.855,1676.607Z" style="fill:rgb(84,107,66);fill-opacity:0.2;"/>
            <path d="M1110.084,1630.508L1227.121,1618.414L1137.73,1692.26L1110.084,1630.508Z" style="fill:rgb(84,107,66);fill-opacity:0.2;"/>
            <path d="M1109.085,1774.211L1066.809,1676.623L1137.73,1692.26L1109.085,1774.211Z" style="fill:rgb(84,107,66);fill-opacity:0.2;"/>
            <path d="M1066.855,1676.607L894.857,1676.616L920.103,1619.61L1042.181,1619.604L1066.855,1676.607Z" style="fill:rgb(84,107,66);fill-opacity:0.1;"/>
        </g>
    </g>
</svg>
